{
    "asset" : {
        "generator" : "Khronos glTF Blender I/O v0.9.36",
        "version" : "2.0"
    },
    "scene" : 0,
    "scenes" : [
        {
            "name" : "Scene",
            "nodes" : [
                0,
                1,
                2,
                3
            ]
        }
    ],
    "nodes" : [
        {
            "name" : "Light",
            "rotation" : [
                0.16907575726509094,
                0.7558803558349609,
                -0.27217137813568115,
                0.570947527885437
            ],
            "translation" : [
                4.076245307922363,
                5.903861999511719,
                -1.0054539442062378
            ]
        },
        {
            "name" : "Camera",
            "rotation" : [
                0.483536034822464,
                0.33687159419059753,
                -0.20870360732078552,
                0.7804827094078064
            ],
            "translation" : [
                7.358891487121582,
                4.958309173583984,
                6.925790786743164
            ]
        },
        {
            "mesh" : 0,
            "name" : "path237",
            "rotation" : [
                0.7071067690849304,
                0,
                0,
                0.7071067690849304
            ],
            "scale" : [
                6,
                6,
                6
            ],
            "translation" : [
                -0.36677831411361694,
                -0.8341304063796997,
                0.13300959765911102
            ]
        },
        {
            "mesh" : 1,
            "name" : "path235",
            "rotation" : [
                0.7071067690849304,
                0,
                0,
                0.7071067690849304
            ],
            "scale" : [
                6,
                6,
                6
            ],
            "translation" : [
                -0.36844342947006226,
                -0.841244637966156,
                0.14106857776641846
            ]
        }
    ],
    "materials" : [
        {
            "doubleSided" : true,
            "name" : "SVGMat.001",
            "pbrMetallicRoughness" : {}
        },
        {
            "doubleSided" : true,
            "name" : "SVGMat.002",
            "pbrMetallicRoughness" : {}
        }
    ],
    "meshes" : [
        {
            "name" : "path237",
            "primitives" : [
                {
                    "attributes" : {
                        "POSITION" : 0,
                        "NORMAL" : 1
                    },
                    "indices" : 2,
                    "material" : 0
                }
            ]
        },
        {
            "name" : "path235",
            "primitives" : [
                {
                    "attributes" : {
                        "POSITION" : 3,
                        "NORMAL" : 4
                    },
                    "indices" : 5,
                    "material" : 1
                }
            ]
        }
    ],
    "accessors" : [
        {
            "bufferView" : 0,
            "componentType" : 5126,
            "count" : 18029,
            "max" : [
                0.18175597488880157,
                0,
                -0.152199387550354
            ],
            "min" : [
                0.007774051278829575,
                -0.062133364379405975,
                -0.25808125734329224
            ],
            "type" : "VEC3"
        },
        {
            "bufferView" : 1,
            "componentType" : 5126,
            "count" : 18029,
            "type" : "VEC3"
        },
        {
            "bufferView" : 2,
            "componentType" : 5123,
            "count" : 32637,
            "type" : "SCALAR"
        },
        {
            "bufferView" : 3,
            "componentType" : 5126,
            "count" : 14502,
            "max" : [
                0.20579494535923004,
                0,
                -0.1738114356994629
            ],
            "min" : [
                0.005439521744847298,
                -0.05198086425662041,
                -0.25741469860076904
            ],
            "type" : "VEC3"
        },
        {
            "bufferView" : 4,
            "componentType" : 5126,
            "count" : 14502,
            "type" : "VEC3"
        },
        {
            "bufferView" : 5,
            "componentType" : 5123,
            "count" : 26139,
            "type" : "SCALAR"
        }
    ],
    "bufferViews" : [
        {
            "buffer" : 0,
            "byteLength" : 216348,
            "byteOffset" : 0
        },
        {
            "buffer" : 0,
            "byteLength" : 216348,
            "byteOffset" : 216348
        },
        {
            "buffer" : 0,
            "byteLength" : 65274,
            "byteOffset" : 432696
        },
        {
            "buffer" : 0,
            "byteLength" : 174024,
            "byteOffset" : 497972
        },
        {
            "buffer" : 0,
            "byteLength" : 174024,
            "byteOffset" : 671996
        },
        {
            "buffer" : 0,
            "byteLength" : 52278,
            "byteOffset" : 846020
        }
    ],
    "buffers" : [
        {
            "byteLength" : 898300,
            "uri" : "data:application/octet-stream;base64,"
        }
    ]
}
