<?xml version="1.0" encoding="UTF-8" standalone="no"?>
<!-- Created with Inkscape (http://www.inkscape.org/) -->

<svg
   xmlns:dc="http://purl.org/dc/elements/1.1/"
   xmlns:cc="http://creativecommons.org/ns#"
   xmlns:rdf="http://www.w3.org/1999/02/22-rdf-syntax-ns#"
   xmlns:svg="http://www.w3.org/2000/svg"
   xmlns="http://www.w3.org/2000/svg"
   xmlns:sodipodi="http://sodipodi.sourceforge.net/DTD/sodipodi-0.dtd"
   xmlns:inkscape="http://www.inkscape.org/namespaces/inkscape"
   width="210mm"
   height="297mm"
   viewBox="0 0 210 297"
   version="1.1"
   id="svg166"
   inkscape:version="0.92.4 (unknown)"
   sodipodi:docname="kintry.svg">
  <defs
     id="defs160" />
  <sodipodi:namedview
     id="base"
     pagecolor="#ffffff"
     bordercolor="#666666"
     borderopacity="1.0"
     inkscape:pageopacity="0.0"
     inkscape:pageshadow="2"
     inkscape:zoom="0.24748737"
     inkscape:cx="-239.5751"
     inkscape:cy="796.14847"
     inkscape:document-units="mm"
     inkscape:current-layer="layer1"
     showgrid="false"
     inkscape:window-width="1366"
     inkscape:window-height="713"
     inkscape:window-x="0"
     inkscape:window-y="27"
     inkscape:window-maximized="1" />
  <metadata
     id="metadata163">
    <rdf:RDF>
      <cc:Work
         rdf:about="">
        <dc:format>image/svg+xml</dc:format>
        <dc:type
           rdf:resource="http://purl.org/dc/dcmitype/StillImage" />
        <dc:title></dc:title>
      </cc:Work>
    </rdf:RDF>
  </metadata>
  <g
     inkscape:label="Layer 1"
     inkscape:groupmode="layer"
     id="layer1">
    <g
       id="g233"
       transform="matrix(1.3159949,0,0,1.455384,336.34091,-49.430934)">
      <path
         style="fill:#3d7617;stroke-width:0.16933332"
         d="m -220.7955,132.19215 c -0.15179,-0.72281 -0.37047,-1.8857 -0.48595,-2.5842 -0.23073,-1.39553 -0.56232,-2.37067 -0.80613,-2.37067 -0.25276,0 -0.78034,0.72044 -1.19699,1.63455 -0.47718,1.04694 -0.70039,0.54483 -0.82073,-1.84622 -0.0618,-1.22873 -0.15623,-1.82033 -0.29045,-1.82033 -0.18347,0 -0.68233,0.75726 -1.25896,1.91108 -0.33406,0.66843 -0.5658,0.49647 -0.8389,-0.62247 l -0.2373,-0.97228 -0.61402,0.0535 c -0.61222,0.0533 -0.61427,0.0513 -0.69869,-0.70851 l -0.0847,-0.762 -0.47976,0.70696 c -0.66342,0.97759 -0.96071,1.06698 -0.77321,0.23247 0.0794,-0.35337 0.22234,-0.84761 0.31766,-1.09832 0.0953,-0.2507 0.17331,-0.75566 0.17331,-1.12213 0,-0.78148 -0.19399,-0.83128 -1.53256,-0.39346 -1.14154,0.37338 -1.57518,0.23364 -1.84892,-0.59579 -0.19143,-0.58003 -0.3648,-0.74024 -1.29839,-1.19985 -1.05579,-0.51976 -1.25066,-0.72085 -0.90537,-0.93425 0.30272,-0.18709 0.0153,-0.39234 -0.93723,-0.66925 -0.51051,-0.14841 -0.9282,-0.34624 -0.9282,-0.43961 0,-0.0934 0.45603,-0.6437 1.01341,-1.22294 0.55738,-0.57924 1.01458,-1.14841 1.016,-1.26482 0.003,-0.26669 -0.0248,-0.26523 -0.79832,0.0414 -0.35113,0.1392 -1.01942,0.27255 -1.48509,0.29634 l -0.84667,0.0433 0.0567,-0.87301 c 0.04,-0.61529 -0.0288,-1.00358 -0.23311,-1.31534 -0.27809,-0.42442 -0.27182,-0.49681 0.15495,-1.78808 0.24463,-0.74017 0.44478,-1.46163 0.44478,-1.60326 0,-0.14163 -0.32385,-0.46497 -0.71967,-0.71854 -0.39582,-0.25356 -0.74873,-0.48056 -0.78426,-0.50443 -0.15676,-0.10536 -0.003,-1.83696 0.22016,-2.47991 0.68788,-1.98159 1.6618,-3.94011 2.70986,-5.44943 0.19402,-0.2794 0.44439,-0.6604 0.55638,-0.84667 0.86263,-1.434691 1.23486,-2.147549 1.23486,-2.364877 0,-0.57797 -1.2667,-0.491244 -2.83822,0.194322 -0.59203,0.258266 -0.76587,0.475041 -1.53032,1.908255 -0.55149,1.03397 -0.88079,1.2691 -0.88079,0.62893 0,-0.4981 -0.15614,-0.9593 -0.32478,-0.9593 -0.0656,0 -0.21259,0.40005 -0.32674,0.889 -0.41095,1.76036 -0.79094,2.83379 -1.0365,2.92802 -0.15238,0.0585 -0.38426,-0.089 -0.59339,-0.37738 -0.53164,-0.73313 -0.93872,-1.09626 -1.14998,-1.02584 -0.41412,0.13804 -1.12403,1.84012 -1.64173,3.9362 -0.11501,0.46567 -0.31399,1.18957 -0.44216,1.60867 -0.12818,0.4191 -0.34275,1.2192 -0.47683,1.778 -0.85977,3.5832 -1.50545,5.41867 -1.90616,5.41867 -0.22109,0 -0.3366,-0.16814 -0.40718,-0.59267 -0.13979,-0.84097 -0.45563,-1.36102 -0.75647,-1.24558 -0.13828,0.0531 -0.25142,0.17638 -0.25142,0.27405 0,0.0977 -0.1905,0.42732 -0.42333,0.73258 -0.23283,0.30526 -0.42333,0.62815 -0.42333,0.71753 0,0.0894 -0.11754,0.20762 -0.2612,0.26275 -0.21775,0.0836 -0.24257,-0.005 -0.14924,-0.53222 0.18424,-1.04084 1.17952,-4.62571 1.79752,-6.47444 0.2335,-0.6985 0.52042,-1.6129 0.6376,-2.032 0.11717,-0.4191 0.31097,-1.0287 0.43065,-1.35467 0.11968,-0.32597 0.31018,-0.93557 0.42333,-1.35467 0.11315,-0.4191 0.30104,-1.0287 0.41752,-1.35466 0.46251,-1.29427 0.63045,-1.81406 0.86023,-2.662392 0.13175,-0.486413 0.40405,-1.362713 0.6051,-1.947333 0.20106,-0.58462 0.42644,-1.329646 0.50085,-1.655613 0.0744,-0.325966 0.29578,-1.126066 0.49193,-1.778 0.45119,-1.499621 0.83484,-3.195101 0.74454,-3.290426 -0.0381,-0.0402 -0.33575,0.185219 -0.66148,0.500931 -0.58701,0.568946 -0.59655,0.571474 -1.08001,0.28589 -0.26827,-0.158472 -0.81848,-0.46009 -1.22268,-0.670264 -0.92852,-0.482803 -1.63889,-1.099225 -1.94302,-1.686055 -0.48837,-0.942325 -0.20424,-1.457525 0.9149,-1.658982 l 0.62612,-0.11271 -0.46566,-0.225039 c -0.25612,-0.123771 -0.46567,-0.313282 -0.46567,-0.421135 0,-0.107852 0.4953,-0.552406 1.10067,-0.987896 0.60536,-0.43549 1.10066,-0.878529 1.10066,-0.984528 0,-0.23308 -0.65543,-0.824785 -0.91491,-0.82596 -0.10216,-5.08e-4 -0.41249,-0.182252 -0.68961,-0.403976 l -0.50385,-0.403133 0.63085,-0.558516 c 0.34697,-0.307184 0.63086,-0.640523 0.63086,-0.740755 0,-0.100232 -0.1905,-0.387685 -0.42334,-0.638785 -0.23283,-0.251101 -0.42333,-0.496602 -0.42333,-0.545558 0,-0.04896 -0.4191,-0.486246 -0.93133,-0.971755 -1.01714,-0.96407 -1.15178,-1.400835 -0.52049,-1.688468 0.50475,-0.22998 1.18039,-0.07698 1.62546,0.368095 0.1839,0.183898 0.3779,0.334359 0.43112,0.334359 0.0532,0 0.21106,0.1143 0.35076,0.254 0.33404,0.334035 0.62654,0.320941 0.94554,-0.04233 0.56683,-0.645511 0.53215,-1.022093 -0.15373,-1.66896 -0.35555,-0.335327 -0.85963,-0.719921 -1.12016,-0.854649 -0.4458,-0.230528 -0.62348,-0.361973 -1.53043,-1.132164 -0.36442,-0.30947 -0.36246,-0.310665 0.31059,-0.189035 0.37254,0.06732 0.8831,0.226519 1.13459,0.353772 0.2515,0.127253 0.80866,0.231369 1.23815,0.231369 h 0.78089 l -0.0421,-0.973667 c -0.0232,-0.535516 0.0106,-1.126066 0.0749,-1.312333 0.1939,-0.561213 2.2102,-1.783658 2.48559,-1.506966 0.0893,0.0897 0.006,0.709061 -0.20143,1.506966 -0.33552,1.28751 -0.33926,1.393569 -0.0755,2.139394 0.3508,0.991862 0.36592,0.915577 -0.23046,1.162606 -0.58178,0.240982 -0.6484,0.629852 -0.22583,1.31829 0.72064,1.174044 1.5076,2.327609 1.62283,2.37882 0.0699,0.03105 0.127,0.13236 0.127,0.225144 0,0.238958 2.37688,3.359079 2.55891,3.359079 0.0827,0 0.15042,0.08164 0.15042,0.181429 0,0.225848 0.42743,0.665238 0.64712,0.665238 0.0898,0 0.20331,0.104219 0.25219,0.2316 0.24175,0.630003 1.85276,0.319439 2.37507,-0.457855 0.13542,-0.201527 0.4008,-0.528474 0.58974,-0.726548 0.18894,-0.198076 0.57791,-0.799352 0.86437,-1.336171 0.68688,-1.287173 0.70965,-2.429457 0.0735,-3.685655 -0.47398,-0.935927 -1.15783,-1.939197 -1.54378,-2.264845 -0.34694,-0.292731 0.049,-0.82331 0.78231,-1.048373 1.42836,-0.438378 2.82276,0.51523 4.99251,3.41432 0.36949,0.493693 0.58073,0.631478 0.90691,0.591561 0.41066,-0.05025 0.55522,-0.265421 1.58424,-2.357954 0.32489,-0.66066 0.57066,-1.835369 0.58135,-2.778687 0.01,-0.858597 0.0982,-1.148904 0.55702,-1.828823 0.30001,-0.444518 0.54546,-0.83851 0.54546,-0.875537 0,-0.03703 0.47038,-0.813951 1.04529,-1.726497 1.55066,-2.461344 1.93364,-3.339307 2.16473,-4.962536 0.27299,-1.917429 0.61339,-2.442522 2.46265,-3.79875 0.37253,-0.273213 0.77802,-0.597063 0.90109,-0.719667 0.49427,-0.492398 0.35822,-0.179604 -0.21124,0.485684 -0.72887,0.851521 -0.84955,1.249666 -1.27367,4.202067 -0.23149,1.611488 -0.32191,3.110403 -0.30645,5.079999 0.0205,2.610743 -0.009,2.891626 -0.44521,4.282436 -0.54673,1.742016 -1.47455,3.927935 -2.13537,5.030898 -0.0837,0.1397 -0.52594,1.016 -0.98275,1.947333 -0.45681,0.931333 -1.08294,2.150533 -1.3914,2.709333 -1.79541,3.252517 -2.85806,5.557412 -2.96804,6.437708 -0.0944,0.755462 -0.1754,0.928292 -0.43514,0.928292 -0.17553,0 -0.31915,0.0762 -0.31915,0.169333 0,0.09313 0.0711,0.169334 0.15792,0.169334 0.0868,0 0.20097,0.13335 0.25359,0.296333 0.0526,0.162983 0.36256,0.586323 0.68875,0.940757 0.32619,0.354433 0.59307,0.688396 0.59307,0.742139 0,0.05374 0.13813,0.220951 0.30696,0.371574 0.16883,0.150626 1.17483,1.226363 2.23555,2.39053 1.06073,1.164166 2.19894,2.39069 2.52937,2.725608 0.33043,0.33491 1.21038,1.28355 1.95545,2.10808 0.74507,0.82453 1.54517,1.70534 1.778,1.95734 1.4891,1.61171 2.87466,3.39465 3.1758,4.08663 0.28581,0.65676 0.12438,0.91383 -0.73281,1.16693 -1.12362,0.33177 -1.05315,0.85743 0.36027,2.68741 0.39563,0.51223 0.86129,1.08373 1.03479,1.27 0.17351,0.18627 0.88246,0.98637 1.57546,1.778 0.69299,0.79163 1.51105,1.67693 1.81791,1.96733 0.30685,0.29039 0.55791,0.61424 0.55791,0.71966 0,0.10542 0.0694,0.19168 0.15414,0.19168 0.17871,0 2.21653,2.51097 2.21653,2.73117 0,0.0811 -0.0459,0.14749 -0.10204,0.14749 -0.2049,0 -1.76029,-0.93505 -1.76045,-1.05833 -1e-4,-0.0699 -0.0815,-0.127 -0.18081,-0.127 -0.0993,0 -0.43039,-0.1905 -0.73565,-0.42334 -0.30526,-0.23283 -0.63672,-0.42333 -0.73659,-0.42333 -0.0999,0 -0.20697,-0.0585 -0.23802,-0.13006 -0.0855,-0.19706 -1.69233,-1.17103 -2.16877,-1.31461 l -0.419,-0.12627 0.49203,0.65847 c 0.63189,0.84563 2.60742,3.25787 2.95657,3.61013 0.14743,0.14875 0.75456,0.85993 1.34918,1.5804 0.59461,0.72047 1.14706,1.30994 1.22766,1.30994 0.0806,0 0.14656,0.0698 0.14656,0.15514 0,0.0853 0.30336,0.48046 0.67414,0.87808 0.37077,0.39762 0.64071,0.75637 0.59986,0.79722 -0.0901,0.0901 -1.0984,-0.92419 -3.55474,-3.57564 -2.07391,-2.23865 -3.70989,-3.7347 -4.28093,-3.9148 -0.31612,-0.0997 -0.381,-0.0567 -0.381,0.25261 0,0.43573 0.34018,1.68885 0.5267,1.94021 0.0708,0.0954 0.25458,0.55262 0.40841,1.016 0.15382,0.46338 0.50165,1.31897 0.77295,1.9013 0.2713,0.58233 0.49327,1.16839 0.49327,1.30234 0,0.13395 0.0762,0.29065 0.16934,0.34821 0.0931,0.0576 0.16933,0.2275 0.16933,0.37766 0,0.15015 0.0985,0.3933 0.21896,0.54034 0.12043,0.14703 0.32144,0.57213 0.44669,0.94466 0.12526,0.37254 0.43262,1.13454 0.68302,1.69334 0.60121,1.34163 0.90762,2.28749 0.78179,2.41331 -0.11828,0.11829 -0.31103,-0.11908 -1.4097,-1.73598 -0.44298,-0.65193 -0.84353,-1.22343 -0.89009,-1.27 -0.12559,-0.12558 -0.49373,-0.72526 -0.62373,-1.016 -0.0625,-0.1397 -0.15778,-0.2921 -0.21183,-0.33867 -0.054,-0.0466 -0.41632,-0.57996 -0.80506,-1.18533 -0.38874,-0.60537 -0.80831,-1.21599 -0.93238,-1.35695 -0.12407,-0.14096 -0.40119,-0.50291 -0.61582,-0.80434 -0.21464,-0.30142 -0.46215,-0.54804 -0.55005,-0.54804 -0.32202,0 0.24748,2.5019 1.29126,5.67266 0.1533,0.46567 0.34367,1.07527 0.42306,1.35467 0.0794,0.2794 0.29098,1.02235 0.4702,1.651 0.17922,0.62865 0.29895,1.143 0.26607,1.143 -0.10559,0 -1.08239,-2.17886 -1.08239,-2.4144 0,-0.12496 -0.0611,-0.29959 -0.13572,-0.38807 -0.0746,-0.0885 -0.38503,-0.80856 -0.68975,-1.6002 -1.41102,-3.66577 -2.49341,-5.66836 -2.96576,-5.4871 -0.39695,0.15232 -0.83742,2.9483 -1.1278,7.15905 -0.24999,3.62485 -0.58032,4.29057 -1.04085,2.09759 z m 33.04574,-22.18453 c -0.008,-16.9741 -0.0206,-17.338703 -0.65749,-18.499671 -0.37401,-0.681795 -1.5542,-1.784176 -2.4677,-2.305023 -0.77395,-0.441271 -0.99212,-0.483005 -2.54,-0.485856 -1.55637,-0.0029 -1.76529,0.03675 -2.58291,0.489768 -1.11973,0.620418 -2.11939,1.622631 -2.6185,2.625208 l -0.38659,0.77657 -0.0847,11.260664 -0.0847,11.26067 h -3.81 -3.81 l -0.0507,-10.24467 c -0.0495,-9.996405 0.0341,-12.335362 0.50563,-14.139331 0.34146,-1.306424 1.256,-3.15201 2.19742,-4.43451 0.58101,-0.791515 0.9692,-1.205311 2.21165,-2.357535 0.63734,-0.591054 2.52061,-1.679263 3.60276,-2.081775 1.38649,-0.515715 3.84358,-1.03218 4.91061,-1.03218 0.94633,0 3.57237,0.505289 4.40266,0.847141 1.25824,0.518043 3.05182,1.459926 3.53037,1.853931 0.63213,0.520469 2.46556,2.35671 2.81963,2.823961 0.51177,0.675364 1.32979,2.261762 1.73512,3.364967 0.13687,0.372533 0.35277,0.944033 0.47977,1.27 0.18837,0.483475 0.24095,3.813803 0.28539,18.076331 l 0.0545,17.48367 h -3.81738 -3.81738 l -0.007,-16.55233 z m 42.68392,-8.29734 c 0.004,-11.577475 0.0301,-12.754762 0.30523,-13.795451 0.16543,-0.625781 0.35393,-1.190931 0.41888,-1.255887 0.065,-0.06496 0.11811,-0.219929 0.11811,-0.344382 0,-0.78634 2.32508,-3.439216 3.65318,-4.168209 2.16741,-1.189692 3.00692,-1.306402 9.39713,-1.306402 6.1945,0 6.58832,0.04896 8.87835,1.103816 1.32248,0.609174 3.21288,2.498084 3.86989,3.866842 0.93999,1.958293 0.95611,2.144402 0.95611,11.039604 v 8.204409 h -3.89467 -3.89466 v -7.759821 -7.759815 l -0.39192,-0.368185 c -0.38496,-0.361657 -0.48485,-0.368183 -5.63503,-0.368183 -5.0435,0 -5.25422,0.01297 -5.53475,0.340602 -0.27022,0.315593 -0.29163,1.25432 -0.29163,12.784662 v 12.44407 h -3.97934 -3.97933 l 0.004,-12.65767 z"
         id="path237"
         inkscape:connector-curvature="0" />
      <path
         style="fill:#60170c;stroke-width:0.16933332"
         d="m -251.24145,118.34829 c -0.30766,-0.37071 -0.25937,-5.17788 0.0723,-7.19767 0.14529,-0.88477 0.26447,-1.87918 0.26484,-2.2098 3.8e-4,-0.33063 0.0687,-0.67353 0.15183,-0.762 0.22139,-0.23563 0.52107,-10.238509 0.69475,-23.190204 0.0837,-6.239933 0.20542,-13.116983 0.27054,-15.282333 l 0.1184,-3.937 h -0.63752 -0.63751 l 0.44343,-0.581369 c 0.24389,-0.319752 0.44343,-0.662652 0.44343,-0.762 0,-0.09935 0.0762,-0.180631 0.16933,-0.180631 0.0931,0 0.16934,0.334013 0.16934,0.74225 0,0.868753 0.14558,0.945098 1.80926,0.948771 0.57599,0.0013 1.60469,0.119965 2.286,0.263764 0.6813,0.143798 2.09324,0.277148 3.13764,0.296333 1.60605,0.0295 1.94416,-0.01038 2.19242,-0.25859 0.2769,-0.276855 0.27747,-0.358355 0.01,-1.439334 -0.15596,-0.630223 -0.33229,-1.317311 -0.39184,-1.526861 -0.085,-0.299135 -0.0394,-0.381 0.21251,-0.381 0.56535,0 0.90405,0.599659 0.90405,1.600609 0,0.505672 -0.0762,0.966498 -0.16934,1.024058 -0.0931,0.05756 -0.16933,0.447442 -0.16933,0.866406 0,0.717254 -0.49617,1.897168 -1.0954,2.604927 -0.11827,0.1397 -0.25549,0.4445 -0.30491,0.677333 -0.0494,0.232834 -0.24988,0.841358 -0.44545,1.352277 -0.19556,0.510918 -0.35557,1.063368 -0.35557,1.227666 0,0.164298 -0.0752,0.298724 -0.16708,0.298724 -0.31499,0 -1.51537,0.931199 -1.63712,1.27 -0.0669,0.186267 -0.10275,0.776817 -0.0796,1.312333 l 0.0421,0.973667 h -0.78089 c -0.42949,0 -0.98665,-0.104116 -1.23815,-0.231369 -0.25149,-0.127253 -0.76205,-0.28645 -1.13459,-0.353772 -0.67305,-0.12163 -0.67501,-0.120435 -0.31059,0.189035 0.90695,0.770191 1.08463,0.901636 1.53043,1.132164 0.26053,0.134728 0.76461,0.519322 1.12016,0.854649 0.68588,0.646867 0.72056,1.023449 0.15373,1.66896 -0.319,0.363274 -0.6115,0.376368 -0.94554,0.04233 -0.1397,-0.1397 -0.29754,-0.254 -0.35076,-0.254 -0.0532,0 -0.24722,-0.150461 -0.43112,-0.334359 -0.44507,-0.445074 -1.12071,-0.598075 -1.62546,-0.368095 -0.63129,0.287633 -0.49665,0.724398 0.52049,1.688468 0.51223,0.485509 0.93133,0.922799 0.93133,0.971755 0,0.04896 0.1905,0.294457 0.42333,0.545558 0.23284,0.2511 0.42334,0.538553 0.42334,0.638785 0,0.100232 -0.28389,0.433571 -0.63086,0.740755 l -0.63085,0.558516 0.50385,0.403133 c 0.27712,0.221724 0.58745,0.403513 0.68961,0.403976 0.25948,0.0012 0.91491,0.59288 0.91491,0.82596 0,0.105999 -0.4953,0.549038 -1.10066,0.984528 -0.60537,0.43549 -1.10067,0.880044 -1.10067,0.987896 0,0.107853 0.20955,0.297364 0.46567,0.421135 l 0.46566,0.225039 -0.62612,0.11271 c -1.11914,0.201457 -1.40327,0.716657 -0.9149,1.658982 0.30413,0.58683 1.0145,1.203252 1.94302,1.686055 0.4042,0.210174 0.95441,0.511792 1.22268,0.670264 0.48346,0.285584 0.493,0.283056 1.08001,-0.28589 0.32573,-0.315712 0.6234,-0.541131 0.66148,-0.500931 0.0903,0.09532 -0.29335,1.790805 -0.74454,3.290426 -0.19615,0.651934 -0.41752,1.452034 -0.49193,1.778 -0.0744,0.325967 -0.29979,1.070993 -0.50085,1.655613 -0.20105,0.58462 -0.47335,1.46092 -0.6051,1.947333 -0.22978,0.848335 -0.39772,1.368125 -0.86023,2.662395 -0.11648,0.32596 -0.30437,0.93556 -0.41752,1.35466 -0.11315,0.4191 -0.30365,1.0287 -0.42333,1.35467 -0.11968,0.32597 -0.31348,0.93557 -0.43065,1.35467 -0.11718,0.4191 -0.4041,1.3335 -0.6376,2.032 -0.618,1.84873 -1.61328,5.4336 -1.79752,6.47444 -0.0933,0.52727 -0.0685,0.61578 0.14924,0.53222 0.14366,-0.0551 0.2612,-0.17336 0.2612,-0.26275 0,-0.0894 0.1905,-0.41227 0.42333,-0.71753 0.23283,-0.30526 0.42333,-0.63492 0.42333,-0.73258 0,-0.0977 0.11314,-0.22099 0.25142,-0.27405 0.30084,-0.11544 0.61668,0.40461 0.75647,1.24558 0.0718,0.43185 0.18477,0.59267 0.41638,0.59267 0.24192,0 0.39643,-0.25283 0.6468,-1.05834 0.33194,-1.06795 0.63004,-1.37952 0.64803,-0.67733 0.0191,0.74629 0.61303,2.67937 0.97262,3.16575 l 0.36557,0.49446 -0.88564,0.16964 c -0.48711,0.0933 -1.6666,0.25468 -2.62109,0.35861 -0.9545,0.10393 -1.9998,0.29942 -2.3229,0.43442 -0.73438,0.30684 -0.8452,0.30609 -1.10549,-0.008 z m 86.40997,-2.43884 c -0.76368,-0.80126 -2.17338,-2.26921 -3.13266,-3.26211 -3.12643,-3.23601 -3.54673,-3.69806 -3.36385,-3.69806 0.12421,0 0.18037,-1.87154 0.18037,-6.01133 0,-3.894668 -0.0596,-6.011335 -0.16934,-6.011335 -0.0931,0 -0.16933,0.08173 -0.16933,0.181624 0,0.288952 -0.72072,-0.346756 -4.14866,-3.659325 -1.76954,-1.709974 -3.4988,-3.370463 -3.8428,-3.689975 l -0.62547,-0.580934 2.89929,-2.81436 c 1.59461,-1.5479 2.91813,-2.814363 2.94116,-2.814363 0.023,0 0.65716,-0.617772 1.40918,-1.372827 0.79939,-0.802618 1.3673,-1.259784 1.3673,-1.100667 0,0.246213 0.77495,0.272161 8.128,0.272161 7.47706,0 8.128,-0.02263 8.128,-0.282553 0,-0.181908 0.40714,0.113623 1.143,0.829666 2.93278,2.853805 5.03306,4.890831 6.22492,6.037451 l 1.2999,1.250566 -0.48158,0.438807 c -0.26486,0.241344 -2.1905,2.076568 -4.27918,4.078278 -2.08869,2.001708 -3.82859,3.546541 -3.86645,3.43296 -0.0379,-0.11358 -0.13868,-0.206509 -0.22405,-0.206509 -0.22698,0 -0.2049,11.977885 0.0222,12.053595 0.16449,0.0548 -1.78972,2.1431 -6.19075,6.61541 -0.98522,1.00118 -1.80692,1.80915 -1.826,1.79549 -0.0191,-0.0137 -0.65953,-0.68041 -1.42322,-1.48166 z m -47.81974,-1.24517 c -0.59523,-0.67521 -1.25403,-1.41739 -1.46399,-1.64927 l -0.38174,-0.4216 V 97.685689 c 0,-13.80632 0.0214,-14.93865 0.29041,-15.326395 0.7659,-1.104197 1.53663,-1.519345 2.82068,-1.519345 0.7867,0 1.03721,0.0842 1.65941,0.557774 1.40547,1.069735 1.30821,-0.184583 1.31736,16.98988 0.009,16.936867 0.0717,15.992567 -1.12672,16.980397 -0.48329,0.39837 -0.80312,0.52395 -1.3344,0.52395 -0.65503,0 -0.76651,-0.0768 -1.78101,-1.22767 z m 84.34287,-0.45987 c -2.99578,-0.53141 -5.64192,-3.1756 -6.36048,-6.35579 -0.17602,-0.77903 -0.23095,-2.98093 -0.23551,-9.440338 l -0.006,-8.424333 h 3.47133 3.47134 v 8.144207 c 0,7.310594 0.029,8.193304 0.28338,8.623934 0.15586,0.26385 0.44161,0.52222 0.635,0.57415 0.19339,0.0519 2.83689,0.0955 5.87445,0.0967 5.34632,0.002 5.53719,-0.009 5.97244,-0.35136 l 0.44962,-0.35367 -0.0494,-7.393326 -0.0494,-7.393332 -0.52148,-1.354666 c -0.28681,-0.745067 -0.67879,-1.773767 -0.87105,-2.286 -0.19227,-0.512234 -0.51423,-1.350434 -0.71548,-1.862667 -0.20124,-0.512233 -0.48046,-1.274233 -0.62049,-1.693333 -0.14002,-0.4191 -0.32447,-0.9144 -0.40986,-1.100667 -0.21905,-0.477781 -0.99776,-2.603568 -1.19183,-3.253548 -0.0894,-0.299317 -0.23586,-0.589565 -0.32555,-0.644993 -0.0897,-0.05543 -0.16306,-0.282285 -0.16306,-0.504125 0,-0.221841 -0.0762,-0.450441 -0.16934,-0.508 -0.0931,-0.05756 -0.16933,-0.257567 -0.16933,-0.44446 0,-0.186893 -0.0927,-0.506245 -0.20603,-0.709672 -0.11331,-0.203427 -0.36967,-0.827068 -0.56967,-1.385868 -0.20001,-0.5588 -0.63637,-1.7399 -0.96968,-2.624667 -0.33331,-0.884767 -0.75619,-2.008717 -0.93972,-2.497667 l -0.3337,-0.889 h 3.26686 3.26685 l 0.20973,0.550334 c 0.11536,0.302683 0.30753,0.778933 0.42706,1.058333 0.11952,0.2794 0.33528,0.8509 0.47945,1.27 0.14417,0.4191 0.41845,1.180024 0.60949,1.690943 0.3159,0.844804 0.34736,1.308759 0.34736,5.122333 v 4.19339 h 3.302 3.302 v -3.946968 c 0,-3.208276 0.0465,-4.008486 0.24862,-4.275667 0.13673,-0.180784 0.25103,-0.484908 0.254,-0.675831 0.003,-0.190923 0.0791,-0.420839 0.16917,-0.510924 0.0901,-0.09009 0.31533,-0.619675 0.50054,-1.176867 0.18521,-0.557192 0.52208,-1.508376 0.74859,-2.113742 l 0.41186,-1.100667 3.14085,-0.04603 3.140849,-0.04603 -0.140262,0.469363 c -0.07715,0.25815 -0.300903,0.837631 -0.49724,1.287736 -0.196337,0.450104 -0.356977,0.949214 -0.356977,1.109133 0,0.159919 -0.0709,0.363151 -0.15748,0.451628 -0.15864,0.162056 -0.43728,0.881365 -1.0227,2.640136 -0.17488,0.525398 -0.39063,1.096898 -0.47944,1.269999 -0.0888,0.173103 -0.2558,0.619532 -0.37108,0.992065 -0.11529,0.372533 -0.30479,0.905933 -0.42112,1.185333 -0.36946,0.887351 -0.72461,1.815675 -1.3604,3.556 -0.34025,0.931333 -0.72659,1.979083 -0.85854,2.328333 -0.13195,0.34925 -0.36203,0.95885 -0.51129,1.354667 -0.14926,0.395817 -0.33976,0.851982 -0.42333,1.013702 -0.0836,0.16172 -0.15438,0.42842 -0.15734,0.592667 -0.003,0.164246 -0.11726,0.446545 -0.254,0.627329 -0.13674,0.180784 -0.24861,0.467568 -0.24861,0.637298 0,0.169729 -0.0684,0.440915 -0.15195,0.602635 -0.0836,0.16172 -0.28177,0.636936 -0.44043,1.056036 -0.15866,0.4191 -0.39508,1.012235 -0.52538,1.318078 -0.19059,0.447362 -0.23691,1.967865 -0.23691,7.777306 0,7.32027 -0.0231,7.63652 -0.65948,9.02286 -0.95961,2.09053 -2.21062,3.31048 -4.41869,4.30898 l -1.1025,0.49855 -6.77333,0.0378 c -3.72533,0.0208 -7.11716,-0.0232 -7.53739,-0.0978 z m -84.14206,-35.001853 c -0.49103,-0.104238 -1.51409,-0.735935 -1.90616,-1.176977 -0.35602,-0.400492 -0.98677,-1.986221 -0.98789,-2.483566 -0.002,-0.721691 0.59644,-2.031153 1.2061,-2.64081 0.62521,-0.625211 1.92146,-1.20693 2.68941,-1.20693 0.73808,0 2.06802,0.574539 2.661,1.149562 0.65921,0.639246 1.23366,1.860092 1.23366,2.621796 0,1.200076 -0.76054,2.548398 -1.84064,3.263178 -0.63857,0.422581 -2.1746,0.66074 -3.05548,0.473747 z m -29.28426,-16.663299 c -1.30942,-0.257455 -1.77329,-1.315484 -0.5995,-1.367375 0.31601,-0.01397 0.6597,-0.03302 0.76378,-0.04233 0.10407,-0.0093 0.3314,0.345016 0.50517,0.7874 0.17377,0.442383 0.26007,0.795984 0.19177,0.78578 -0.0683,-0.0102 -0.45584,-0.08377 -0.86122,-0.163472 z"
         id="path235"
         inkscape:connector-curvature="0" />
    </g>
  </g>
</svg>
