<?xml version="1.0" encoding="UTF-8" standalone="no"?>
<!-- Created with Inkscape (http://www.inkscape.org/) -->

<svg
   xmlns:dc="http://purl.org/dc/elements/1.1/"
   xmlns:cc="http://creativecommons.org/ns#"
   xmlns:rdf="http://www.w3.org/1999/02/22-rdf-syntax-ns#"
   xmlns:svg="http://www.w3.org/2000/svg"
   xmlns="http://www.w3.org/2000/svg"
   xmlns:sodipodi="http://sodipodi.sourceforge.net/DTD/sodipodi-0.dtd"
   xmlns:inkscape="http://www.inkscape.org/namespaces/inkscape"
   width="210mm"
   height="297mm"
   viewBox="0 0 210 297"
   version="1.1"
   id="svg8"
   inkscape:version="0.92.4 (unknown)"
   sodipodi:docname="logo.svg">
  <defs
     id="defs2" />
  <sodipodi:namedview
     id="base"
     pagecolor="#ffffff"
     bordercolor="#666666"
     borderopacity="1.0"
     inkscape:pageopacity="0.0"
     inkscape:pageshadow="2"
     inkscape:zoom="0.175"
     inkscape:cx="3.9859646"
     inkscape:cy="821.85682"
     inkscape:document-units="mm"
     inkscape:current-layer="layer1"
     showgrid="false"
     inkscape:window-width="1366"
     inkscape:window-height="713"
     inkscape:window-x="0"
     inkscape:window-y="27"
     inkscape:window-maximized="1" />
  <metadata
     id="metadata5">
    <rdf:RDF>
      <cc:Work
         rdf:about="">
        <dc:format>image/svg+xml</dc:format>
        <dc:type
           rdf:resource="http://purl.org/dc/dcmitype/StillImage" />
        <dc:title></dc:title>
      </cc:Work>
    </rdf:RDF>
  </metadata>
  <g
     inkscape:label="Layer 1"
     inkscape:groupmode="layer"
     id="layer1">
    <g
       id="g75"
       transform="matrix(1.7884956,0,0,1.6099093,374.59244,-40.581273)">
      <path
         style="fill:#3e7617;stroke-width:0.16933334"
         d="m -125.14657,207.24528 c -0.33948,-0.81248 -0.79956,-2.85869 -1.42867,-6.35403 -1.0583,-5.87986 -1.58333,-7.79649 -2.23061,-8.1429 -0.29368,-0.15718 -0.44054,-0.0784 -1.04591,0.56095 -0.38733,0.40908 -1.03933,1.34893 -1.44887,2.08854 -1.36538,2.46578 -1.87519,2.91674 -2.23814,1.97974 -0.0992,-0.25612 -0.24764,-2.10397 -0.32985,-4.10633 -0.17399,-4.23808 -0.26828,-5.11055 -0.59793,-5.53257 -0.22827,-0.29223 -0.27219,-0.2749 -0.79025,0.3119 -0.3017,0.34174 -1.07932,1.56094 -1.72805,2.70934 -0.64873,1.1484 -1.36031,2.26964 -1.5813,2.49166 -0.39521,0.39705 -0.40708,0.39837 -0.72459,0.0809 -0.19817,-0.19817 -0.45554,-0.94244 -0.6666,-1.92766 -0.59731,-2.7883 -0.68277,-2.87518 -2.4772,-2.5185 -1.3848,0.27525 -1.46507,0.18323 -1.3478,-1.54514 0.0976,-1.43854 -0.045,-1.88964 -0.48241,-1.52658 -0.14991,0.12441 -0.66441,0.72911 -1.14335,1.34377 -1.05384,1.35251 -1.84603,2.21825 -2.02979,2.21825 -0.25065,0 -0.14049,-0.6151 0.54372,-3.03611 0.90025,-3.18542 1.14034,-4.59413 0.88027,-5.16494 -0.16908,-0.37108 -0.30755,-0.43495 -0.94298,-0.43495 -0.40965,0 -1.49713,0.23306 -2.41664,0.51791 -2.23921,0.69368 -3.05857,0.83747 -3.63236,0.63745 -0.56778,-0.19794 -0.81701,-0.56488 -1.33157,-1.96057 -0.44487,-1.20666 -1.03917,-1.81442 -2.40416,-2.45862 -0.49925,-0.23561 -1.50256,-0.70746 -2.22958,-1.04855 -0.72701,-0.34109 -1.36556,-0.73409 -1.41899,-0.87334 -0.0564,-0.14695 0.10745,-0.46734 0.39051,-0.76364 0.46514,-0.48688 0.47319,-0.5211 0.17437,-0.74062 -0.17231,-0.12659 -1.00067,-0.38842 -1.8408,-0.58186 -1.72477,-0.39712 -2.59913,-0.76091 -2.74549,-1.14233 -0.17327,-0.45153 0.48856,-1.25726 2.94017,-3.57947 1.31051,-1.24134 2.38275,-2.36529 2.38275,-2.49767 0,-0.39922 -0.8364,-0.2881 -4.06501,0.54007 -4.18478,1.07343 -4.51456,0.94381 -3.92524,-1.54276 0.37329,-1.57502 0.31263,-1.91488 -0.54148,-3.03382 -0.88023,-1.15316 -0.83903,-1.74256 0.32683,-4.67552 1.06456,-2.67811 1.28623,-3.82372 0.86442,-4.46747 -0.15092,-0.23033 -0.7899,-0.66153 -1.41996,-0.95822 -2.3193,-1.09216 -2.63744,-1.57821 -2.3897,-3.65096 0.23891,-1.99892 1.41268,-5.23905 3.3659,-9.29135 0.81124,-1.68306 2.08806,-3.79498 4.4021,-7.28133 4.30041,-6.479 4.77899,-7.5057 3.79821,-8.14833 -0.87949,-0.57626 -4.24312,0.0887 -6.83863,1.35187 -1.3766,0.66997 -2.12429,1.59606 -3.65501,4.52708 -0.62441,1.1956 -1.24954,2.26865 -1.38918,2.38454 -0.38816,0.32215 -0.67298,-0.19768 -0.90861,-1.65833 -0.11084,-0.68712 -0.29062,-1.37114 -0.3995,-1.52005 -0.17035,-0.23296 -0.23795,-0.17991 -0.48454,0.38024 -0.15761,0.35804 -0.62852,1.96075 -1.04645,3.56158 -0.7279,2.78807 -1.28884,4.33841 -1.82019,5.0307 -0.44513,0.57996 -1.04784,0.23216 -1.97266,-1.13837 -0.90912,-1.34727 -1.8974,-2.31775 -2.3542,-2.31183 -0.63896,0.008 -1.72785,1.37179 -1.72914,2.16523 -3.4e-4,0.21504 -0.0683,0.34917 -0.15099,0.29806 -0.32221,-0.19913 -1.74965,4.2924 -4.33694,13.6464 -2.32987,8.42337 -3.44475,12.17797 -3.82802,12.89177 -0.0896,0.16677 -0.11037,0.38809 -0.0463,0.49183 0.0661,0.10687 0.0404,0.14151 -0.0593,0.0799 -0.0967,-0.0598 -0.26785,0.11344 -0.3803,0.38493 -0.11246,0.27148 -0.35259,0.62765 -0.53363,0.7915 -0.31473,0.28482 -0.34339,0.2835 -0.65323,-0.0301 -0.18177,-0.18396 -0.55293,-1.17312 -0.84528,-2.25269 -0.61051,-2.2544 -0.75292,-2.56263 -1.184,-2.56263 -0.38198,0 -1.04309,0.79749 -2.71526,3.27539 -1.68634,2.4989 -2.06,2.62579 -1.70179,0.57788 0.44909,-2.56738 2.58596,-9.4582 8.38894,-27.05193 5.55949,-16.85554 7.65872,-23.55739 8.45997,-27.00867 0.84137,-3.62411 0.75514,-3.80669 -0.96984,-2.0535 -0.9166,0.9316 -1.38967,1.2915 -1.69763,1.2915 -0.51188,0 -4.71507,-2.20535 -6.69768,-3.51418 -2.02971,-1.33992 -2.86964,-2.79787 -2.68985,-4.66906 0.12787,-1.330749 0.41078,-1.49615 2.73444,-1.598694 1.07983,-0.04765 1.96332,-0.146737 1.96332,-0.220187 0,-0.07345 -0.4253,-0.292676 -0.94512,-0.487165 -1.68477,-0.630352 -1.96026,-0.82293 -1.90152,-1.32924 0.0436,-0.375788 0.47262,-0.733869 2.49499,-2.082412 1.34329,-0.895723 2.58154,-1.800486 2.75166,-2.010587 0.70055,-0.865142 0.23203,-1.374405 -2.59473,-2.820324 -1.28597,-0.657791 -1.92344,-1.083986 -2.05578,-1.374438 -0.20801,-0.45654 -0.22089,-0.441386 1.81108,-2.13053 1.44854,-1.204152 1.19686,-1.699371 -2.94155,-5.787853 -2.51783,-2.487454 -2.97407,-3.090859 -2.81531,-3.723407 0.11954,-0.476284 1.00728,-0.916252 2.11299,-1.047206 1.04447,-0.123703 2.02328,0.322077 4.14217,1.886472 0.93689,0.691718 1.66255,1.106141 1.93685,1.106141 0.96707,0 2.23837,-1.408503 2.23697,-2.478388 -0.002,-1.126128 -0.9336,-1.99862 -4.91003,-4.59588 -4.97041,-3.246489 -4.97762,-3.497311 -0.0597,-2.077576 3.57191,1.03116 4.46705,1.170667 5.05205,0.787361 0.49627,-0.325169 0.55076,-1.013199 0.23924,-3.021009 -0.25667,-1.654254 -0.0581,-2.241795 1.12227,-3.320584 0.51178,-0.467738 1.52037,-1.215668 2.24132,-1.662069 0.72094,-0.446402 1.33637,-0.870963 1.36761,-0.94347 0.0312,-0.07251 0.11563,-0.09546 0.18755,-0.05101 0.0719,0.04445 0.37458,0.01089 0.67258,-0.07458 1.2626,-0.362109 1.30922,0.175919 0.33555,3.872393 -0.79501,3.018174 -0.79559,3.417528 -0.008,5.211191 0.57388,1.306371 0.6551,1.819858 0.32204,2.035958 -0.11613,0.07535 -0.66858,0.289394 -1.22767,0.47566 -0.98955,0.329679 -1.01795,0.356044 -1.07026,0.993386 -0.0645,0.785912 0.7019,2.185982 3.06655,5.602036 4.9109,7.094461 9.61041,12.607291 11.62226,13.633661 1.7646,0.90023 3.1532,0.531969 4.95505,-1.314099 3.77888,-3.871599 5.50537,-7.204331 5.36087,-10.348303 -0.0502,-1.092334 -0.16401,-1.501484 -0.75783,-2.72468 -0.38432,-0.791634 -1.35585,-2.423756 -2.15896,-3.626941 -1.48022,-2.217588 -1.671,-2.638393 -1.19621,-2.638393 0.1452,0 0.2169,-0.0762 0.15934,-0.169333 -0.16169,-0.261619 -0.59267,-0.200049 -0.59267,0.08467 0,0.280171 -1.09233,0.372136 -1.25692,0.105822 -0.12981,-0.210029 0.78949,-1.430538 1.45701,-1.934412 1.56127,-1.178509 4.35833,-1.040597 6.72905,0.33178 1.16823,0.676279 3.92847,3.461126 5.53477,5.584135 2.60254,3.439698 3.54168,3.962021 4.75338,2.643676 1.13607,-1.236056 4.45738,-8.848069 4.45738,-10.215738 0,-0.283597 -0.12165,-0.887541 -0.27033,-1.342103 -0.22368,-0.683876 -0.23509,-0.937703 -0.0661,-1.471149 0.39259,-1.239322 1.65888,-3.408057 4.68272,-8.019897 5.34636,-8.154071 5.74597,-8.998219 6.14363,-12.977864 0.36719,-3.674806 0.92328,-4.791538 3.49841,-7.025575 1.69038,-1.46647 6.83968,-5.239098 6.83968,-5.011079 0,0.03507 -0.52889,0.504321 -1.17531,1.042783 -2.92445,2.436031 -3.68137,4.465853 -4.68025,12.550953 -0.41593,3.366569 -0.43354,3.826617 -0.33065,8.636001 0.0677,3.166484 0.0418,5.702673 -0.0688,6.733071 -0.68283,6.358394 -2.78287,11.160539 -12.79152,29.250264 -1.8808,3.399367 -3.86226,7.018867 -4.40325,8.043331 -0.54099,1.02447 -1.19319,2.17863 -1.44934,2.56481 -0.56655,0.85414 -0.94802,2.46873 -1.10701,4.68547 l -0.11922,1.66228 -0.85363,-0.0453 c -0.48642,-0.0258 -0.87915,0.0312 -0.91295,0.13265 -0.083,0.24906 0.95527,1.75085 2.32985,3.36994 1.56359,1.8417 4.07754,4.48375 11.92288,12.53036 10.69583,10.97024 14.93215,15.50783 17.6134,18.86599 2.82468,3.53782 3.02516,5.18369 0.70273,5.76919 -1.28707,0.32448 -2.13947,0.69904 -2.30816,1.01423 -0.82016,1.5325 1.23906,4.21814 11.94764,15.58212 2.33257,2.47534 5.06118,5.41044 6.063574,6.52244 1.693569,1.87877 3.157386,3.80639 3.157386,4.1578 0,0.60833 -1.926509,-0.37377 -6.535489,-3.33167 -7.722841,-4.95628 -9.366861,-5.77837 -8.721041,-4.36096 0.51851,1.13802 3.36971,4.46407 11.440622,13.346 2.708135,2.98027 5.382719,5.95207 5.943519,6.604 2.950387,3.42984 1.465458,2.09669 -5.768277,-5.17866 -7.106574,-7.14747 -9.757114,-9.65759 -11.795744,-11.17083 -1.8419,-1.36723 -2.51292,-1.4864 -2.51292,-0.44631 0,1.63703 1.64912,5.83654 6.86159,17.47313 4.02008,8.97464 5.406485,12.42638 5.110135,12.72271 -0.381386,0.38139 -1.916225,-1.5825 -6.899355,-8.82804 -6.40256,-9.30941 -8.10972,-11.4971 -8.59389,-11.01292 -0.49098,0.49097 0.62244,4.74028 3.86177,14.73825 1.4998,4.62902 2.53841,8.10364 2.53841,8.49212 0,0.49068 -0.39081,-0.006 -0.93992,-1.19443 -0.30661,-0.66363 -1.48515,-3.4534 -2.61898,-6.19947 -5.1507,-12.47483 -7.33931,-16.60943 -8.54677,-16.14609 -1.07919,0.41413 -1.85167,4.84562 -2.71162,15.55587 -0.59327,7.38893 -0.98375,9.906 -1.53674,9.906 -0.14185,0 -0.36859,-0.26488 -0.50386,-0.58863 z m -72.92052,-6.97771 c 0.12224,-0.0489 0.26829,-0.0429 0.32456,0.0134 0.0563,0.0563 -0.0438,0.0963 -0.22225,0.089 -0.19727,-0.008 -0.23739,-0.0483 -0.10231,-0.10231 z m 2.87867,-0.33866 c 0.12223,-0.0489 0.26828,-0.0429 0.32455,0.0134 0.0563,0.0563 -0.0437,0.0963 -0.22225,0.0889 -0.19726,-0.008 -0.23739,-0.0483 -0.1023,-0.10231 z m 1.524,-0.16934 c 0.12223,-0.0489 0.26828,-0.0429 0.32455,0.0134 0.0563,0.0563 -0.0437,0.0963 -0.22225,0.0889 -0.19726,-0.008 -0.23739,-0.0483 -0.1023,-0.10231 z m 1.69333,-0.16933 c 0.12224,-0.0489 0.26829,-0.0429 0.32456,0.0134 0.0563,0.0563 -0.0437,0.0963 -0.22225,0.0889 -0.19727,-0.008 -0.23739,-0.0483 -0.10231,-0.10231 z m -14.34821,-0.66043 c 0.008,-0.19728 0.0482,-0.23739 0.1023,-0.10231 0.0489,0.12224 0.0429,0.26829 -0.0134,0.32456 -0.0563,0.0563 -0.0963,-0.0438 -0.0889,-0.22225 z m -0.16934,-1.35467 c 0.008,-0.19727 0.0482,-0.23739 0.10231,-0.10231 0.0489,0.12224 0.0429,0.26829 -0.0134,0.32456 -0.0563,0.0563 -0.0963,-0.0438 -0.0889,-0.22225 z m -0.14,-2.69523 c 0.002,-0.37253 0.0366,-0.50499 0.0771,-0.29436 0.0405,0.21064 0.039,0.51544 -0.003,0.67734 -0.0424,0.1619 -0.0755,-0.0104 -0.0736,-0.38298 z m 0,-3.556 c 0.002,-0.37253 0.0366,-0.50499 0.0771,-0.29436 0.0405,0.21064 0.039,0.51544 -0.003,0.67734 -0.0424,0.1619 -0.0755,-0.0104 -0.0736,-0.38298 z m 0.15337,-2.96333 c 0,-0.23283 0.0384,-0.32808 0.0854,-0.21167 0.047,0.11642 0.047,0.30692 0,0.42334 -0.047,0.11641 -0.0854,0.0212 -0.0854,-0.21167 z m 0.15597,-2.13078 c 0.008,-0.19726 0.0482,-0.23739 0.1023,-0.1023 0.0489,0.12223 0.0429,0.26828 -0.0134,0.32455 -0.0563,0.0563 -0.0963,-0.0437 -0.0889,-0.22225 z m 0.33866,-3.21733 c 0.008,-0.19727 0.0482,-0.23739 0.10231,-0.10231 0.0489,0.12224 0.0429,0.26829 -0.0134,0.32456 -0.0563,0.0563 -0.0963,-0.0438 -0.0889,-0.22225 z m 0.33867,-2.87867 c 0.008,-0.19726 0.0482,-0.23739 0.1023,-0.1023 0.0489,0.12223 0.0429,0.26828 -0.0134,0.32455 -0.0563,0.0563 -0.0963,-0.0437 -0.0889,-0.22225 z m 0.508,-4.40267 c 0.008,-0.19726 0.0482,-0.23738 0.1023,-0.1023 0.0489,0.12224 0.0429,0.26829 -0.0134,0.32455 -0.0563,0.0563 -0.0963,-0.0437 -0.0889,-0.22225 z m 0.16933,-1.86266 c 0.008,-0.19727 0.0482,-0.23739 0.10231,-0.10231 0.0489,0.12224 0.0429,0.26829 -0.0134,0.32456 -0.0563,0.0563 -0.0963,-0.0438 -0.0889,-0.22225 z m 14.24364,-1.17122 c 0.003,-0.2794 0.0414,-0.37321 0.0843,-0.20845 0.0429,0.16476 0.0401,0.39336 -0.006,0.508 -0.0464,0.11464 -0.0815,-0.0202 -0.0781,-0.29955 z m 0.16306,-2.62467 c 0,-0.23284 0.0384,-0.32809 0.0854,-0.21167 0.047,0.11642 0.047,0.30692 0,0.42333 -0.047,0.11642 -0.0854,0.0212 -0.0854,-0.21166 z m -13.01697,-1.43934 c 10e-4,-0.46566 0.0342,-0.63606 0.0731,-0.37867 0.0389,0.2574 0.0379,0.6384 -0.002,0.84667 -0.0402,0.20827 -0.072,-0.002 -0.0708,-0.468 z m 13.17294,-0.52211 c 0.008,-0.19726 0.0482,-0.23738 0.1023,-0.1023 0.0489,0.12223 0.0429,0.26829 -0.0134,0.32455 -0.0563,0.0563 -0.0963,-0.0437 -0.0889,-0.22225 z m -13.00129,-6.33589 c 0,-0.51223 0.0317,-0.72178 0.0705,-0.46566 0.0388,0.25611 0.0388,0.67521 0,0.93133 -0.0388,0.25612 -0.0705,0.0466 -0.0705,-0.46567 z m 0.16933,-7.112 c 0,-0.51223 0.0317,-0.72178 0.0705,-0.46566 0.0388,0.25611 0.0388,0.67521 0,0.93133 -0.0388,0.25612 -0.0705,0.0466 -0.0705,-0.46567 z m 20.62129,-2.80811 c 0.008,-0.19726 0.0482,-0.23739 0.10231,-0.1023 0.0489,0.12223 0.0429,0.26829 -0.0134,0.32455 -0.0563,0.0563 -0.0963,-0.0437 -0.0889,-0.22225 z m 0.16933,-2.20133 c 0.008,-0.19727 0.0482,-0.23739 0.10231,-0.10231 0.0489,0.12224 0.0429,0.26829 -0.0134,0.32456 -0.0563,0.0563 -0.0963,-0.0437 -0.0889,-0.22225 z m 0.18271,-2.10256 c 0,-0.23283 0.0384,-0.32808 0.0854,-0.21166 0.047,0.11641 0.047,0.30691 0,0.42333 -0.047,0.11642 -0.0854,0.0212 -0.0854,-0.21167 z m -20.80054,-0.84666 c 0,-0.60537 0.0307,-0.85302 0.0683,-0.55034 0.0376,0.30269 0.0376,0.79799 0,1.10067 -0.0376,0.30268 -0.0683,0.055 -0.0683,-0.55033 z m 20.9565,-1.45345 c 0.008,-0.19726 0.0482,-0.23739 0.10231,-0.1023 0.0489,0.12223 0.0429,0.26829 -0.0134,0.32455 -0.0563,0.0563 -0.0963,-0.0437 -0.0889,-0.22225 z m 0.1827,-2.27189 c 0,-0.23283 0.0384,-0.32808 0.0854,-0.21166 0.047,0.11641 0.047,0.30691 0,0.42333 -0.047,0.11642 -0.0854,0.0212 -0.0854,-0.21167 z m 0.16934,-2.20133 c 0,-0.23283 0.0384,-0.32808 0.0854,-0.21167 0.047,0.11642 0.047,0.30692 0,0.42334 -0.047,0.11641 -0.0854,0.0212 -0.0854,-0.21167 z m -21.13921,-2.20133 c 0,-0.60537 0.0307,-0.85302 0.0683,-0.55034 0.0376,0.30269 0.0376,0.79799 0,1.10067 -0.0376,0.30268 -0.0683,0.055 -0.0683,-0.55033 z m 21.29517,0.0705 c 0.008,-0.19726 0.0482,-0.23739 0.10231,-0.1023 0.0489,0.12223 0.0429,0.26828 -0.0134,0.32455 -0.0563,0.0563 -0.0963,-0.0437 -0.0889,-0.22225 z m -21.12198,-9.46855 c 6.1e-4,-0.74507 0.0304,-1.02881 0.0661,-0.63053 0.0358,0.39828 0.0353,1.00788 -10e-4,1.35467 -0.0364,0.34679 -0.0657,0.0209 -0.065,-0.72414 z m 0.16933,-9.99067 c 6.1e-4,-0.74507 0.0304,-1.0288 0.0662,-0.63053 0.0358,0.39828 0.0353,1.00788 -0.001,1.35467 -0.0364,0.34679 -0.0657,0.0209 -0.065,-0.72414 z m 0.16933,-9.82134 c 6.1e-4,-0.74506 0.0304,-1.0288 0.0662,-0.63052 0.0358,0.39828 0.0353,1.00788 -0.001,1.35467 -0.0364,0.34678 -0.0657,0.0209 -0.065,-0.72415 z m 0.17139,-10.498662 c -5.1e-4,-0.8382 0.0281,-1.20245 0.0636,-0.809443 0.0355,0.393006 0.0359,1.078806 9.3e-4,1.524 -0.035,0.445195 -0.064,0.123643 -0.0646,-0.714557 z m 0.16934,-11.176001 c -5.1e-4,-0.8382 0.0281,-1.20245 0.0636,-0.809442 0.0355,0.393006 0.0359,1.078806 9.3e-4,1.524 -0.035,0.445192 -0.0641,0.123642 -0.0646,-0.714558 z m 0.16839,-11.091334 c 0,-0.791633 0.0292,-1.115483 0.0648,-0.719667 0.0356,0.395817 0.0356,1.043517 0,1.439334 -0.0357,0.395816 -0.0648,0.07197 -0.0648,-0.719667 z m 0.16933,-10.837334 c 0,-0.791633 0.0292,-1.115483 0.0648,-0.719667 0.0356,0.395817 0.0356,1.043517 0,1.439334 -0.0357,0.395816 -0.0648,0.07197 -0.0648,-0.719667 z m 0.16934,-10.498667 c 0,-0.791634 0.0292,-1.115484 0.0648,-0.719667 0.0357,0.395817 0.0357,1.043517 0,1.439333 -0.0356,0.395817 -0.0648,0.07197 -0.0648,-0.719666 z m 0.16709,-10.329334 c 0,-0.6985 0.0299,-0.98425 0.0664,-0.635 0.0365,0.34925 0.0365,0.92075 0,1.27 -0.0365,0.34925 -0.0664,0.0635 -0.0664,-0.635 z m 20.23132,0.900326 c 0.12224,-0.04892 0.26829,-0.0429 0.32456,0.01337 0.0563,0.05627 -0.0437,0.09629 -0.22225,0.08894 -0.19727,-0.0081 -0.23739,-0.04825 -0.10231,-0.102306 z m -13.208,-1.693333 c 0.12224,-0.04892 0.26829,-0.0429 0.32456,0.01337 0.0563,0.05627 -0.0437,0.09629 -0.22225,0.08894 -0.19727,-0.0081 -0.23739,-0.04825 -0.10231,-0.102306 z m -1.69333,-0.169334 c 0.12224,-0.04892 0.26829,-0.0429 0.32456,0.01337 0.0563,0.05627 -0.0437,0.09629 -0.22225,0.08894 -0.19727,-0.0081 -0.23739,-0.04825 -0.10231,-0.102305 z m -2.04258,-0.165805 c 0.11641,-0.04698 0.30691,-0.04698 0.42333,0 0.11642,0.04698 0.0212,0.08541 -0.21167,0.08541 -0.23283,0 -0.32808,-0.03843 -0.21166,-0.08541 z m -2.54,-0.169334 c 0.11641,-0.04697 0.30691,-0.04697 0.42333,0 0.11642,0.04698 0.0212,0.08541 -0.21167,0.08541 -0.23283,0 -0.32808,-0.03843 -0.21166,-0.08541 z m -0.75591,-0.819187 c 0.001,-0.465667 0.0342,-0.636069 0.0731,-0.378672 0.0389,0.257398 0.0379,0.638398 -0.002,0.846667 -0.0402,0.208269 -0.072,-0.0023 -0.0708,-0.467995 z m 30.10627,-3.062111 c 0.008,-0.197264 0.0482,-0.237389 0.10231,-0.102306 0.0489,0.122238 0.0429,0.268288 -0.0134,0.324556 -0.0563,0.05627 -0.0963,-0.04375 -0.0889,-0.22225 z m -7.41848,-10.347903 c 0.16476,-0.04293 0.39336,-0.04011 0.508,0.0063 0.11465,0.04638 -0.0202,0.08151 -0.29955,0.07806 -0.2794,-0.0035 -0.3732,-0.0414 -0.20845,-0.08434 z"
         id="path79"
         inkscape:connector-curvature="0" />
      <path
         style="fill:#61170c;stroke-width:0.16933334"
         d="m -205.6287,201.68535 c -0.28025,-0.33768 -0.68987,-3.12445 -0.87587,-5.95877 -0.21299,-3.24569 -0.004,-6.98944 0.77525,-13.88533 0.32624,-2.88714 0.70203,-6.3667 0.83509,-7.73236 0.21942,-2.25195 0.29509,-2.58322 0.81306,-3.55958 l 0.57112,-1.07655 0.11506,-5.33043 c 0.0633,-2.93173 0.22733,-10.51202 0.36453,-16.84509 0.36639,-16.9113 0.84923,-45.92936 1.4384,-86.444668 0.0968,-6.659034 0.22046,-13.261464 0.27473,-14.672069 l 0.0987,-2.564733 1.04133,0.07711 c 3.44474,0.25508 7.18664,0.634647 9.84667,0.998816 7.64332,1.046402 9.647,1.259543 11.8406,1.259543 2.583,0 3.93398,-0.310096 5.10599,-1.171999 l 0.68905,-0.506735 0.19188,1.434086 0.19187,1.434084 -0.57013,1.332046 c -0.31358,0.732624 -1.18047,2.263921 -1.92641,3.402882 -1.10474,1.686767 -1.42308,2.326547 -1.71644,3.449571 -0.19809,0.758303 -0.7674,2.483632 -1.26513,3.834066 -0.49773,1.350433 -0.95304,2.607733 -1.01178,2.794 -0.0587,0.186267 -0.68416,0.681567 -1.38981,1.100667 -0.70565,0.4191 -1.73114,1.167023 -2.27886,1.662054 -1.25237,1.131883 -1.45092,1.695507 -1.1899,3.377788 0.31152,2.00781 0.25703,2.69584 -0.23924,3.021009 -0.585,0.383306 -1.48014,0.243799 -5.05205,-0.787361 -4.91793,-1.419735 -4.91072,-1.168913 0.0597,2.077576 3.97643,2.59726 4.90856,3.469752 4.91003,4.59588 0.001,1.069885 -1.2699,2.478388 -2.23697,2.478388 -0.2743,0 -0.99996,-0.414423 -1.93685,-1.106141 -2.11889,-1.564395 -3.0977,-2.010175 -4.14217,-1.886472 -1.10571,0.130954 -1.99345,0.570922 -2.11299,1.047206 -0.15876,0.632548 0.29748,1.235953 2.81531,3.723407 4.13841,4.088482 4.39009,4.583701 2.94155,5.787853 -2.03197,1.689144 -2.01909,1.67399 -1.81108,2.13053 0.13234,0.290452 0.76981,0.716647 2.05578,1.374438 2.82676,1.445919 3.29528,1.955182 2.59473,2.820324 -0.17012,0.210101 -1.40837,1.114864 -2.75166,2.010587 -2.02237,1.348543 -2.4514,1.706624 -2.49499,2.082412 -0.0587,0.50631 0.21675,0.698888 1.90152,1.32924 0.51982,0.194489 0.94512,0.413713 0.94512,0.487165 0,0.07345 -0.88349,0.172535 -1.96332,0.220187 -2.32366,0.102544 -2.60657,0.267945 -2.73444,1.598693 -0.17979,1.87119 0.66014,3.32914 2.68985,4.66906 1.98261,1.30883 6.1858,3.51418 6.69768,3.51418 0.30796,0 0.78103,-0.3599 1.69763,-1.2915 1.72498,-1.75319 1.81121,-1.57061 0.96984,2.0535 -0.80125,3.45128 -2.90048,10.15313 -8.45997,27.00867 -5.80298,17.59373 -7.93985,24.48455 -8.38894,27.05193 -0.35821,2.04791 0.0154,1.92102 1.70179,-0.57788 1.67217,-2.4779 2.33328,-3.27539 2.71526,-3.27539 0.43108,0 0.57349,0.30823 1.184,2.56263 0.56547,2.0881 0.96458,2.7387 1.43867,2.34524 0.15171,-0.12591 0.46493,-0.57684 0.69605,-1.00207 0.23111,-0.42522 0.37587,-0.62843 0.32169,-0.45157 -0.18522,0.60457 -0.58913,3.23264 -0.78337,5.09711 -0.10673,1.02446 -0.2425,4.14867 -0.3017,6.94267 l -0.10765,5.08 1.14876,5.334 c 0.63182,2.9337 1.29938,6.07132 1.48346,6.97249 0.45576,2.23119 0.81559,2.9863 2.06086,4.32488 l 1.06567,1.14551 -2.37024,0.37585 c -1.30364,0.20673 -4.46574,0.61059 -7.02691,0.89747 -4.9366,0.55294 -4.99779,0.5643 -7.84548,1.45689 -1.93548,0.60667 -2.99905,0.72031 -3.30388,0.35301 z m 17.13295,-41.62073 c 0.64171,-2.10857 1.56657,-5.3592 2.90987,-10.22738 2.30717,-8.3613 4.09364,-13.93424 4.13324,-12.89381 0.0178,0.46771 -1.16342,16.0255 -1.26319,16.63737 -0.069,0.42315 -0.33851,0.70506 -1.37599,1.43933 -1.61254,1.14126 -3.04585,2.6913 -3.85983,4.17416 -0.34467,0.62789 -0.58951,1.01954 -0.5441,0.87033 z m 15.7953,-116.327805 c -0.0423,-0.132501 -0.20629,-1.002911 -0.3644,-1.934244 -0.15811,-0.931333 -0.65955,-2.866657 -1.11432,-4.300719 -0.45476,-1.434062 -0.82684,-2.703246 -0.82684,-2.820408 0,-0.144808 0.4412,-0.04189 1.37781,0.321386 l 1.3778,0.534407 0.60087,1.254065 0.60086,1.254065 -0.19339,1.730636 c -0.19161,1.714665 -0.58382,3.062915 -1.1092,3.813008 -0.20306,0.289905 -0.29182,0.327476 -0.34919,0.147804 z m -31.57714,-0.791244 c 0.21416,-0.34925 0.98237,-1.5439 1.70715,-2.654779 l 1.31777,-2.019779 -0.001,1.511779 c -6.6e-4,0.831479 -0.0498,2.026129 -0.10915,2.654779 l -0.10795,1.143 h -1.59799 -1.59799 z m 27.91692,-9.033948 c -0.51224,-0.181979 -1.46474,-0.41342 -2.11667,-0.514314 -1.4107,-0.218323 -1.92124,-0.457596 -2.53649,-1.188778 -1.43618,-1.706804 -0.68531,-2.542291 2.47053,-2.748921 l 1.62736,-0.106553 0.53992,1.238308 c 0.557,1.277503 1.25159,3.685387 1.05679,3.6635 -0.0606,-0.0068 -0.52921,-0.161264 -1.04144,-0.343242 z"
         id="path77"
         inkscape:connector-curvature="0" />
    </g>
  </g>
</svg>
